{
    "asset" : {
        "generator" : "Khronos glTF Blender I/O v1.4.40",
        "version" : "2.0"
    },
    "scene" : 0,
    "scenes" : [
        {
            "name" : "Scene",
            "nodes" : [
                0
            ]
        }
    ],
    "nodes" : [
        {
            "mesh" : 0,
            "name" : "Plane"
        }
    ],
    "materials" : [
        {
            "doubleSided" : true,
            "name" : "Material.001",
            "pbrMetallicRoughness" : {
                "baseColorFactor" : [
                    0.800000011920929,
                    0.800000011920929,
                    0.800000011920929,
                    1
                ],
                "metallicFactor" : 0,
                "roughnessFactor" : 0.5
            }
        },
        {
            "doubleSided" : true,
            "name" : "wood",
            "pbrMetallicRoughness" : {
                "baseColorTexture" : {
                    "index" : 0,
                    "texCoord" : 0
                },
                "metallicFactor" : 0,
                "roughnessFactor" : 0.5
            }
        },
        {
            "doubleSided" : true,
            "name" : "curtain",
            "pbrMetallicRoughness" : {
                "baseColorTexture" : {
                    "index" : 1,
                    "texCoord" : 0
                },
                "metallicFactor" : 0,
                "roughnessFactor" : 0.5
            }
        },
        {
            "doubleSided" : true,
            "name" : "carpet2",
            "pbrMetallicRoughness" : {
                "baseColorTexture" : {
                    "index" : 2,
                    "texCoord" : 0
                },
                "metallicFactor" : 0,
                "roughnessFactor" : 0.5
            }
        },
        {
            "doubleSided" : true,
            "name" : "White",
            "pbrMetallicRoughness" : {
                "baseColorTexture" : {
                    "index" : 3,
                    "texCoord" : 0
                },
                "metallicFactor" : 0,
                "roughnessFactor" : 0.5
            }
        },
        {
            "doubleSided" : true,
            "name" : "Black",
            "pbrMetallicRoughness" : {
                "baseColorTexture" : {
                    "index" : 4,
                    "texCoord" : 0
                },
                "metallicFactor" : 0,
                "roughnessFactor" : 0.5
            }
        }
    ],
    "meshes" : [
        {
            "name" : "Plane",
            "primitives" : [
                {
                    "attributes" : {
                        "POSITION" : 0,
                        "NORMAL" : 1,
                        "TEXCOORD_0" : 2
                    },
                    "indices" : 3,
                    "material" : 0
                },
                {
                    "attributes" : {
                        "POSITION" : 4,
                        "NORMAL" : 5,
                        "TEXCOORD_0" : 6
                    },
                    "indices" : 7,
                    "material" : 1
                },
                {
                    "attributes" : {
                        "POSITION" : 8,
                        "NORMAL" : 9,
                        "TEXCOORD_0" : 10
                    },
                    "indices" : 11,
                    "material" : 2
                },
                {
                    "attributes" : {
                        "POSITION" : 12,
                        "NORMAL" : 13,
                        "TEXCOORD_0" : 14
                    },
                    "indices" : 15,
                    "material" : 3
                },
                {
                    "attributes" : {
                        "POSITION" : 16,
                        "NORMAL" : 17,
                        "TEXCOORD_0" : 18
                    },
                    "indices" : 19,
                    "material" : 4
                },
                {
                    "attributes" : {
                        "POSITION" : 20,
                        "NORMAL" : 21,
                        "TEXCOORD_0" : 22
                    },
                    "indices" : 23,
                    "material" : 5
                }
            ]
        }
    ],
    "textures" : [
        {
            "sampler" : 0,
            "source" : 0
        },
        {
            "sampler" : 0,
            "source" : 1
        },
        {
            "sampler" : 0,
            "source" : 2
        },
        {
            "sampler" : 0,
            "source" : 3
        },
        {
            "sampler" : 0,
            "source" : 4
        }
    ],
    "images" : [
        {
            "mimeType" : "image/png",
            "name" : "wood",
            "uri" : "wood.png"
        },
        {
            "mimeType" : "image/jpeg",
            "name" : "curtain",
            "uri" : "curtain.jpg"
        },
        {
            "mimeType" : "image/jpeg",
            "name" : "carpet2",
            "uri" : "carpet2.jpg"
        },
        {
            "mimeType" : "image/jpeg",
            "name" : "white",
            "uri" : "white.jpg"
        },
        {
            "mimeType" : "image/jpeg",
            "name" : "black",
            "uri" : "black.jpg"
        }
    ],
    "accessors" : [
        {
            "bufferView" : 0,
            "componentType" : 5126,
            "count" : 51,
            "max" : [
                3.950167179107666,
                8.25,
                -10.850000381469727
            ],
            "min" : [
                -15.690166473388672,
                4.25,
                -14.850000381469727
            ],
            "type" : "VEC3"
        },
        {
            "bufferView" : 1,
            "componentType" : 5126,
            "count" : 51,
            "type" : "VEC3"
        },
        {
            "bufferView" : 2,
            "componentType" : 5126,
            "count" : 51,
            "type" : "VEC2"
        },
        {
            "bufferView" : 3,
            "componentType" : 5123,
            "count" : 99,
            "type" : "SCALAR"
        },
        {
            "bufferView" : 4,
            "componentType" : 5126,
            "count" : 34,
            "max" : [
                0.2198328971862793,
                -0.17000000178813934,
                6.650000095367432
            ],
            "min" : [
                -11.960166931152344,
                -0.17000000178813934,
                -0.3499999940395355
            ],
            "type" : "VEC3"
        },
        {
            "bufferView" : 5,
            "componentType" : 5126,
            "count" : 34,
            "type" : "VEC3"
        },
        {
            "bufferView" : 6,
            "componentType" : 5126,
            "count" : 34,
            "type" : "VEC2"
        },
        {
            "bufferView" : 7,
            "componentType" : 5123,
            "count" : 66,
            "type" : "SCALAR"
        },
        {
            "bufferView" : 8,
            "componentType" : 5126,
            "count" : 12,
            "max" : [
                -2.371446371078491,
                4.829999923706055,
                6.650000095367432
            ],
            "min" : [
                -9.368887901306152,
                -0.17000000178813934,
                6.650000095367432
            ],
            "type" : "VEC3"
        },
        {
            "bufferView" : 9,
            "componentType" : 5126,
            "count" : 12,
            "type" : "VEC3"
        },
        {
            "bufferView" : 10,
            "componentType" : 5126,
            "count" : 12,
            "type" : "VEC2"
        },
        {
            "bufferView" : 11,
            "componentType" : 5123,
            "count" : 24,
            "type" : "SCALAR"
        },
        {
            "bufferView" : 12,
            "componentType" : 5126,
            "count" : 1454,
            "max" : [
                2.650167226791382,
                4.25,
                1.0500000715255737
            ],
            "min" : [
                -14.390166282653809,
                -0.17000000178813934,
                -14.850000381469727
            ],
            "type" : "VEC3"
        },
        {
            "bufferView" : 13,
            "componentType" : 5126,
            "count" : 1454,
            "type" : "VEC3"
        },
        {
            "bufferView" : 14,
            "componentType" : 5126,
            "count" : 1454,
            "type" : "VEC2"
        },
        {
            "bufferView" : 15,
            "componentType" : 5123,
            "count" : 2352,
            "type" : "SCALAR"
        },
        {
            "bufferView" : 16,
            "componentType" : 5126,
            "count" : 4,
            "max" : [
                -3.562061309814453,
                4.048749923706055,
                6.650000095367432
            ],
            "min" : [
                -8.179323196411133,
                1.2049999237060547,
                6.650000095367432
            ],
            "type" : "VEC3"
        },
        {
            "bufferView" : 17,
            "componentType" : 5126,
            "count" : 4,
            "type" : "VEC3"
        },
        {
            "bufferView" : 18,
            "componentType" : 5126,
            "count" : 4,
            "type" : "VEC2"
        },
        {
            "bufferView" : 19,
            "componentType" : 5123,
            "count" : 6,
            "type" : "SCALAR"
        },
        {
            "bufferView" : 20,
            "componentType" : 5126,
            "count" : 8,
            "max" : [
                -3.562061309814453,
                4.829999923706055,
                6.650000095367432
            ],
            "min" : [
                -8.179323196411133,
                -0.17000000178813934,
                6.650000095367432
            ],
            "type" : "VEC3"
        },
        {
            "bufferView" : 21,
            "componentType" : 5126,
            "count" : 8,
            "type" : "VEC3"
        },
        {
            "bufferView" : 22,
            "componentType" : 5126,
            "count" : 8,
            "type" : "VEC2"
        },
        {
            "bufferView" : 23,
            "componentType" : 5123,
            "count" : 12,
            "type" : "SCALAR"
        }
    ],
    "bufferViews" : [
        {
            "buffer" : 0,
            "byteLength" : 612,
            "byteOffset" : 0
        },
        {
            "buffer" : 0,
            "byteLength" : 612,
            "byteOffset" : 612
        },
        {
            "buffer" : 0,
            "byteLength" : 408,
            "byteOffset" : 1224
        },
        {
            "buffer" : 0,
            "byteLength" : 198,
            "byteOffset" : 1632
        },
        {
            "buffer" : 0,
            "byteLength" : 408,
            "byteOffset" : 1832
        },
        {
            "buffer" : 0,
            "byteLength" : 408,
            "byteOffset" : 2240
        },
        {
            "buffer" : 0,
            "byteLength" : 272,
            "byteOffset" : 2648
        },
        {
            "buffer" : 0,
            "byteLength" : 132,
            "byteOffset" : 2920
        },
        {
            "buffer" : 0,
            "byteLength" : 144,
            "byteOffset" : 3052
        },
        {
            "buffer" : 0,
            "byteLength" : 144,
            "byteOffset" : 3196
        },
        {
            "buffer" : 0,
            "byteLength" : 96,
            "byteOffset" : 3340
        },
        {
            "buffer" : 0,
            "byteLength" : 48,
            "byteOffset" : 3436
        },
        {
            "buffer" : 0,
            "byteLength" : 17448,
            "byteOffset" : 3484
        },
        {
            "buffer" : 0,
            "byteLength" : 17448,
            "byteOffset" : 20932
        },
        {
            "buffer" : 0,
            "byteLength" : 11632,
            "byteOffset" : 38380
        },
        {
            "buffer" : 0,
            "byteLength" : 4704,
            "byteOffset" : 50012
        },
        {
            "buffer" : 0,
            "byteLength" : 48,
            "byteOffset" : 54716
        },
        {
            "buffer" : 0,
            "byteLength" : 48,
            "byteOffset" : 54764
        },
        {
            "buffer" : 0,
            "byteLength" : 32,
            "byteOffset" : 54812
        },
        {
            "buffer" : 0,
            "byteLength" : 12,
            "byteOffset" : 54844
        },
        {
            "buffer" : 0,
            "byteLength" : 96,
            "byteOffset" : 54856
        },
        {
            "buffer" : 0,
            "byteLength" : 96,
            "byteOffset" : 54952
        },
        {
            "buffer" : 0,
            "byteLength" : 64,
            "byteOffset" : 55048
        },
        {
            "buffer" : 0,
            "byteLength" : 24,
            "byteOffset" : 55112
        }
    ],
    "samplers" : [
        {
            "magFilter" : 9729,
            "minFilter" : 9986
        }
    ],
    "buffers" : [
        {
            "byteLength" : 55136,
            "uri" : "Theatre.bin"
        }
    ]
}
