{
    "asset" : {
        "generator" : "Khronos glTF Blender I/O v1.4.40",
        "version" : "2.0"
    },
    "scene" : 0,
    "scenes" : [
        {
            "name" : "Scene",
            "nodes" : [
                0
            ]
        }
    ],
    "nodes" : [
        {
            "mesh" : 0,
            "name" : "Cube.316",
            "rotation" : [
                0,
                0.7071068286895752,
                0,
                0.7071067690849304
            ],
            "translation" : [
                -0.10490036010742188,
                -0.4854204058647156,
                -0.8552513122558594
            ]
        }
    ],
    "materials" : [
        {
            "doubleSided" : true,
            "name" : "black.001",
            "normalTexture" : {
                "index" : 0,
                "texCoord" : 0
            },
            "pbrMetallicRoughness" : {
                "baseColorTexture" : {
                    "index" : 1,
                    "texCoord" : 0
                },
                "metallicFactor" : 0,
                "roughnessFactor" : 0.5
            }
        },
        {
            "doubleSided" : true,
            "name" : "white",
            "normalTexture" : {
                "index" : 2,
                "texCoord" : 0
            },
            "pbrMetallicRoughness" : {
                "baseColorTexture" : {
                    "index" : 3,
                    "texCoord" : 0
                },
                "metallicFactor" : 0,
                "roughnessFactor" : 0.5
            }
        },
        {
            "doubleSided" : true,
            "name" : "logo.001",
            "normalTexture" : {
                "index" : 4,
                "texCoord" : 0
            },
            "pbrMetallicRoughness" : {
                "baseColorTexture" : {
                    "index" : 5,
                    "texCoord" : 0
                },
                "metallicFactor" : 0,
                "roughnessFactor" : 0.5
            }
        }
    ],
    "meshes" : [
        {
            "name" : "Cube.316",
            "primitives" : [
                {
                    "attributes" : {
                        "POSITION" : 0,
                        "NORMAL" : 1,
                        "TANGENT" : 2,
                        "TEXCOORD_0" : 3
                    },
                    "indices" : 4,
                    "material" : 0
                },
                {
                    "attributes" : {
                        "POSITION" : 5,
                        "NORMAL" : 6,
                        "TANGENT" : 7,
                        "TEXCOORD_0" : 8
                    },
                    "indices" : 9,
                    "material" : 1
                },
                {
                    "attributes" : {
                        "POSITION" : 10,
                        "NORMAL" : 11,
                        "TANGENT" : 12,
                        "TEXCOORD_0" : 13
                    },
                    "indices" : 14,
                    "material" : 2
                },
                {
                    "attributes" : {
                        "POSITION" : 15,
                        "NORMAL" : 16,
                        "TANGENT" : 17,
                        "TEXCOORD_0" : 18
                    },
                    "indices" : 19,
                    "material" : 0
                }
            ]
        }
    ],
    "textures" : [
        {
            "sampler" : 0,
            "source" : 0
        },
        {
            "sampler" : 0,
            "source" : 1
        },
        {
            "sampler" : 0,
            "source" : 2
        },
        {
            "sampler" : 0,
            "source" : 3
        },
        {
            "sampler" : 0,
            "source" : 4
        },
        {
            "sampler" : 1,
            "source" : 5
        }
    ],
    "images" : [
        {
            "mimeType" : "image/jpeg",
            "name" : "black_normal",
            "uri" : "black_normal.jpg"
        },
        {
            "mimeType" : "image/jpeg",
            "name" : "black",
            "uri" : "black.jpg"
        },
        {
            "mimeType" : "image/jpeg",
            "name" : "white_normal",
            "uri" : "white_normal.jpg"
        },
        {
            "mimeType" : "image/jpeg",
            "name" : "white",
            "uri" : "white.jpg"
        },
        {
            "mimeType" : "image/jpeg",
            "name" : "logo_normal",
            "uri" : "logo_normal.jpg"
        },
        {
            "mimeType" : "image/jpeg",
            "name" : "logo",
            "uri" : "logo.jpg"
        }
    ],
    "accessors" : [
        {
            "bufferView" : 0,
            "componentType" : 5126,
            "count" : 54,
            "max" : [
                0,
                1.3105969429016113,
                1
            ],
            "min" : [
                -1,
                0.309143602848053,
                -1
            ],
            "type" : "VEC3"
        },
        {
            "bufferView" : 1,
            "componentType" : 5126,
            "count" : 54,
            "type" : "VEC3"
        },
        {
            "bufferView" : 2,
            "componentType" : 5126,
            "count" : 54,
            "type" : "VEC4"
        },
        {
            "bufferView" : 3,
            "componentType" : 5126,
            "count" : 54,
            "type" : "VEC2"
        },
        {
            "bufferView" : 4,
            "componentType" : 5123,
            "count" : 78,
            "type" : "SCALAR"
        },
        {
            "bufferView" : 5,
            "componentType" : 5126,
            "count" : 108,
            "max" : [
                0.06000000238418579,
                1.3605971336364746,
                1
            ],
            "min" : [
                -1,
                0.9105971455574036,
                -1
            ],
            "type" : "VEC3"
        },
        {
            "bufferView" : 6,
            "componentType" : 5126,
            "count" : 108,
            "type" : "VEC3"
        },
        {
            "bufferView" : 7,
            "componentType" : 5126,
            "count" : 108,
            "type" : "VEC4"
        },
        {
            "bufferView" : 8,
            "componentType" : 5126,
            "count" : 108,
            "type" : "VEC2"
        },
        {
            "bufferView" : 9,
            "componentType" : 5123,
            "count" : 150,
            "type" : "SCALAR"
        },
        {
            "bufferView" : 10,
            "componentType" : 5126,
            "count" : 4,
            "max" : [
                0.06000000238418579,
                1.210597038269043,
                0.4000000059604645
            ],
            "min" : [
                0.06000000238418579,
                1.0355970859527588,
                -0.39952319860458374
            ],
            "type" : "VEC3"
        },
        {
            "bufferView" : 11,
            "componentType" : 5126,
            "count" : 4,
            "type" : "VEC3"
        },
        {
            "bufferView" : 12,
            "componentType" : 5126,
            "count" : 4,
            "type" : "VEC4"
        },
        {
            "bufferView" : 13,
            "componentType" : 5126,
            "count" : 4,
            "type" : "VEC2"
        },
        {
            "bufferView" : 14,
            "componentType" : 5123,
            "count" : 6,
            "type" : "SCALAR"
        },
        {
            "bufferView" : 15,
            "componentType" : 5126,
            "count" : 186,
            "max" : [
                0.05000000074505806,
                1.3605971336364746,
                0.75
            ],
            "min" : [
                -0.8000000715255737,
                0.309143602848053,
                -0.75
            ],
            "type" : "VEC3"
        },
        {
            "bufferView" : 16,
            "componentType" : 5126,
            "count" : 186,
            "type" : "VEC3"
        },
        {
            "bufferView" : 17,
            "componentType" : 5126,
            "count" : 186,
            "type" : "VEC4"
        },
        {
            "bufferView" : 18,
            "componentType" : 5126,
            "count" : 186,
            "type" : "VEC2"
        },
        {
            "bufferView" : 19,
            "componentType" : 5123,
            "count" : 300,
            "type" : "SCALAR"
        }
    ],
    "bufferViews" : [
        {
            "buffer" : 0,
            "byteLength" : 648,
            "byteOffset" : 0
        },
        {
            "buffer" : 0,
            "byteLength" : 648,
            "byteOffset" : 648
        },
        {
            "buffer" : 0,
            "byteLength" : 864,
            "byteOffset" : 1296
        },
        {
            "buffer" : 0,
            "byteLength" : 432,
            "byteOffset" : 2160
        },
        {
            "buffer" : 0,
            "byteLength" : 156,
            "byteOffset" : 2592
        },
        {
            "buffer" : 0,
            "byteLength" : 1296,
            "byteOffset" : 2748
        },
        {
            "buffer" : 0,
            "byteLength" : 1296,
            "byteOffset" : 4044
        },
        {
            "buffer" : 0,
            "byteLength" : 1728,
            "byteOffset" : 5340
        },
        {
            "buffer" : 0,
            "byteLength" : 864,
            "byteOffset" : 7068
        },
        {
            "buffer" : 0,
            "byteLength" : 300,
            "byteOffset" : 7932
        },
        {
            "buffer" : 0,
            "byteLength" : 48,
            "byteOffset" : 8232
        },
        {
            "buffer" : 0,
            "byteLength" : 48,
            "byteOffset" : 8280
        },
        {
            "buffer" : 0,
            "byteLength" : 64,
            "byteOffset" : 8328
        },
        {
            "buffer" : 0,
            "byteLength" : 32,
            "byteOffset" : 8392
        },
        {
            "buffer" : 0,
            "byteLength" : 12,
            "byteOffset" : 8424
        },
        {
            "buffer" : 0,
            "byteLength" : 2232,
            "byteOffset" : 8436
        },
        {
            "buffer" : 0,
            "byteLength" : 2232,
            "byteOffset" : 10668
        },
        {
            "buffer" : 0,
            "byteLength" : 2976,
            "byteOffset" : 12900
        },
        {
            "buffer" : 0,
            "byteLength" : 1488,
            "byteOffset" : 15876
        },
        {
            "buffer" : 0,
            "byteLength" : 600,
            "byteOffset" : 17364
        }
    ],
    "samplers" : [
        {
            "magFilter" : 9729,
            "minFilter" : 9986
        },
        {
            "magFilter" : 9729,
            "minFilter" : 9986,
            "wrapS" : 33071,
            "wrapT" : 33071
        }
    ],
    "buffers" : [
        {
            "byteLength" : 17964,
            "uri" : "desk.bin"
        }
    ]
}
