{
    "asset" : {
        "generator" : "Khronos glTF Blender I/O v1.4.40",
        "version" : "2.0"
    },
    "scene" : 0,
    "scenes" : [
        {
            "name" : "Scene",
            "nodes" : [
                0
            ]
        }
    ],
    "nodes" : [
        {
            "mesh" : 0,
            "name" : "Cube.340",
            "translation" : [
                -0.36449241638183594,
                1.3089005947113037,
                1.4052586555480957
            ]
        }
    ],
    "materials" : [
        {
            "doubleSided" : true,
            "name" : "black",
            "normalTexture" : {
                "index" : 0,
                "texCoord" : 0
            },
            "pbrMetallicRoughness" : {
                "baseColorTexture" : {
                    "index" : 1,
                    "texCoord" : 0
                },
                "metallicFactor" : 0,
                "roughnessFactor" : 0.5
            }
        },
        {
            "doubleSided" : true,
            "name" : "grey",
            "normalTexture" : {
                "index" : 2,
                "texCoord" : 0
            },
            "pbrMetallicRoughness" : {
                "baseColorTexture" : {
                    "index" : 3,
                    "texCoord" : 0
                },
                "metallicFactor" : 0,
                "roughnessFactor" : 0.5
            }
        }
    ],
    "meshes" : [
        {
            "name" : "Cube.341",
            "primitives" : [
                {
                    "attributes" : {
                        "POSITION" : 0,
                        "NORMAL" : 1,
                        "TANGENT" : 2,
                        "TEXCOORD_0" : 3
                    },
                    "indices" : 4,
                    "material" : 0
                },
                {
                    "attributes" : {
                        "POSITION" : 5,
                        "NORMAL" : 6,
                        "TANGENT" : 7,
                        "TEXCOORD_0" : 8
                    },
                    "indices" : 9,
                    "material" : 1
                }
            ]
        }
    ],
    "textures" : [
        {
            "sampler" : 0,
            "source" : 0
        },
        {
            "sampler" : 0,
            "source" : 1
        },
        {
            "sampler" : 0,
            "source" : 2
        },
        {
            "sampler" : 0,
            "source" : 3
        }
    ],
    "images" : [
        {
            "mimeType" : "image/jpeg",
            "name" : "black_normal",
            "uri" : "black_normal.jpg"
        },
        {
            "mimeType" : "image/jpeg",
            "name" : "black",
            "uri" : "black.jpg"
        },
        {
            "mimeType" : "image/jpeg",
            "name" : "grey_normal",
            "uri" : "grey_normal.jpg"
        },
        {
            "mimeType" : "image/jpeg",
            "name" : "grey",
            "uri" : "grey.jpg"
        }
    ],
    "accessors" : [
        {
            "bufferView" : 0,
            "componentType" : 5126,
            "count" : 84,
            "max" : [
                0.16192206740379333,
                -0.19007225334644318,
                -1.6378456354141235
            ],
            "min" : [
                -0.09223166108131409,
                -0.44007229804992676,
                -1.9096869230270386
            ],
            "type" : "VEC3"
        },
        {
            "bufferView" : 1,
            "componentType" : 5126,
            "count" : 84,
            "type" : "VEC3"
        },
        {
            "bufferView" : 2,
            "componentType" : 5126,
            "count" : 84,
            "type" : "VEC4"
        },
        {
            "bufferView" : 3,
            "componentType" : 5126,
            "count" : 84,
            "type" : "VEC2"
        },
        {
            "bufferView" : 4,
            "componentType" : 5123,
            "count" : 126,
            "type" : "SCALAR"
        },
        {
            "bufferView" : 5,
            "componentType" : 5126,
            "count" : 4,
            "max" : [
                0.1487015187740326,
                -0.2003052532672882,
                -1.8929284811019897
            ],
            "min" : [
                -0.0790451169013977,
                -0.4098392724990845,
                -1.8948023319244385
            ],
            "type" : "VEC3"
        },
        {
            "bufferView" : 6,
            "componentType" : 5126,
            "count" : 4,
            "type" : "VEC3"
        },
        {
            "bufferView" : 7,
            "componentType" : 5126,
            "count" : 4,
            "type" : "VEC4"
        },
        {
            "bufferView" : 8,
            "componentType" : 5126,
            "count" : 4,
            "type" : "VEC2"
        },
        {
            "bufferView" : 9,
            "componentType" : 5123,
            "count" : 6,
            "type" : "SCALAR"
        }
    ],
    "bufferViews" : [
        {
            "buffer" : 0,
            "byteLength" : 1008,
            "byteOffset" : 0
        },
        {
            "buffer" : 0,
            "byteLength" : 1008,
            "byteOffset" : 1008
        },
        {
            "buffer" : 0,
            "byteLength" : 1344,
            "byteOffset" : 2016
        },
        {
            "buffer" : 0,
            "byteLength" : 672,
            "byteOffset" : 3360
        },
        {
            "buffer" : 0,
            "byteLength" : 252,
            "byteOffset" : 4032
        },
        {
            "buffer" : 0,
            "byteLength" : 48,
            "byteOffset" : 4284
        },
        {
            "buffer" : 0,
            "byteLength" : 48,
            "byteOffset" : 4332
        },
        {
            "buffer" : 0,
            "byteLength" : 64,
            "byteOffset" : 4380
        },
        {
            "buffer" : 0,
            "byteLength" : 32,
            "byteOffset" : 4444
        },
        {
            "buffer" : 0,
            "byteLength" : 12,
            "byteOffset" : 4476
        }
    ],
    "samplers" : [
        {
            "magFilter" : 9729,
            "minFilter" : 9986
        }
    ],
    "buffers" : [
        {
            "byteLength" : 4488,
            "uri" : "laptop1.bin"
        }
    ]
}
